<svg id="Layer_1" height="512" viewBox="0 0 128 128" width="512" xmlns="http://www.w3.org/2000/svg" data-name="Layer 1"><path d="m121.5 13.6h-115a1.751 1.751 0 0 0 -1.75 1.75v97.308a1.751 1.751 0 0 0 1.75 1.742h115a1.75 1.75 0 0 0 1.75-1.75v-97.304a1.75 1.75 0 0 0 -1.75-1.746zm-113.25 3.5h111.5v10.637h-111.5zm0 93.808v-79.671h111.5v79.663z"/><path d="m82.958 19.393a3.024 3.024 0 1 0 3.024 3.024 3.024 3.024 0 0 0 -3.024-3.024z"/><path d="m94.792 19.393a3.024 3.024 0 1 0 3.023 3.024 3.024 3.024 0 0 0 -3.023-3.024z"/><path d="m106.625 19.393a3.024 3.024 0 1 0 3.023 3.024 3.023 3.023 0 0 0 -3.023-3.024z"/><path d="m92.917 71.066a28.727 28.727 0 0 0 -3.836-14.366 1.762 1.762 0 0 0 -.215-.375 29.042 29.042 0 0 0 -16.831-13.031 1.688 1.688 0 0 0 -.221-.063 28.779 28.779 0 0 0 -15.627 0 1.878 1.878 0 0 0 -.219.062 29.035 29.035 0 0 0 -16.831 13.032 1.692 1.692 0 0 0 -.219.381 28.808 28.808 0 0 0 0 28.721 1.765 1.765 0 0 0 .22.382 29.034 29.034 0 0 0 16.852 13.037 1.719 1.719 0 0 0 .226.064 28.775 28.775 0 0 0 15.562 0 1.663 1.663 0 0 0 .232-.066 29.036 29.036 0 0 0 16.855-13.04 1.708 1.708 0 0 0 .216-.376 28.73 28.73 0 0 0 3.836-14.362zm-27.167 25.35v-9.9h9.142a27.982 27.982 0 0 1 -4.464 9.14 25.23 25.23 0 0 1 -4.678.76zm-8.177-.758a27.962 27.962 0 0 1 -4.465-9.14h9.142v9.9a25.206 25.206 0 0 1 -4.677-.76zm-18.922-22.842h8.849a58.6 58.6 0 0 0 1.141 10.2h-7.064a25.211 25.211 0 0 1 -2.926-10.2zm2.926-13.7h7.061a58.626 58.626 0 0 0 -1.141 10.2h-8.846a25.211 25.211 0 0 1 2.926-10.201zm20.673-13.4v9.9h-9.142a27.962 27.962 0 0 1 4.465-9.14 25.289 25.289 0 0 1 4.677-.759zm8.178.758a27.971 27.971 0 0 1 4.464 9.14h-9.142v-9.9a25.314 25.314 0 0 1 4.678.761zm18.922 22.842h-8.85a58.659 58.659 0 0 0 -1.141-10.2h7.062a25.243 25.243 0 0 1 2.929 10.2zm-12.35 0h-11.25v-10.2h10.033a55.59 55.59 0 0 1 1.217 10.2zm-14.75-10.201v10.2h-11.25a55.472 55.472 0 0 1 1.22-10.2zm-11.25 13.701h11.25v10.2h-10.032a55.462 55.462 0 0 1 -1.218-10.2zm14.752 10.2v-10.2h11.248a55.524 55.524 0 0 1 -1.22 10.2zm14.748-10.2h8.85a25.243 25.243 0 0 1 -2.926 10.2h-7.062a58.671 58.671 0 0 0 1.138-10.2zm3.658-17.2h-5.624a38.823 38.823 0 0 0 -2.667-7.016 25.589 25.589 0 0 1 8.294 7.015zm-32.024-7.016a38.732 38.732 0 0 0 -2.667 7.015h-5.628a25.57 25.57 0 0 1 8.295-7.015zm-8.3 37.918h5.627a38.823 38.823 0 0 0 2.667 7.015 25.577 25.577 0 0 1 -8.289-7.015zm32.028 7.015a38.852 38.852 0 0 0 2.667-7.015h5.627a25.577 25.577 0 0 1 -8.289 7.015z"/></svg>