<svg id="Layer_1" height="512" viewBox="0 0 128 128" width="512" xmlns="http://www.w3.org/2000/svg" data-name="Layer 1"><path d="m109.474 109.75a6.7 6.7 0 0 0 -3.225.822l-8.5-8.932v-24.5a27 27 0 0 0 -.622-53.952 22.432 22.432 0 0 0 -20.347-13.178 22.155 22.155 0 0 0 -11.82 3.379 27.981 27.981 0 0 0 -48.2 19.351q0 .37.01.736a23.31 23.31 0 0 0 11.29 43.7h2.19v24.46l-8.5 8.932a6.8 6.8 0 1 0 2.53 2.418l8.987-9.444a1.751 1.751 0 0 0 .482-1.206v-25.156h16v32.808a6.75 6.75 0 1 0 3.5 0v-32.808h21.5v32.808a6.75 6.75 0 1 0 3.5 0v-32.808h16v25.16a1.751 1.751 0 0 0 .482 1.206l8.987 9.444a6.743 6.743 0 1 0 5.755-3.24zm-90.948 10a3.25 3.25 0 1 1 3.25-3.25 3.254 3.254 0 0 1 -3.25 3.25zm36.224-3.25a3.25 3.25 0 1 1 -3.25-3.25 3.254 3.254 0 0 1 3.25 3.25zm25 0a3.25 3.25 0 1 1 -3.25-3.25 3.254 3.254 0 0 1 3.25 3.25zm-71.5-62.63a19.692 19.692 0 0 1 11.091-17.789 1.75 1.75 0 0 0 .975-1.69q-.055-.811-.056-1.651a24.48 24.48 0 0 1 43.089-15.915 1.749 1.749 0 0 0 2.362.279 18.675 18.675 0 0 1 11.069-3.594 18.9 18.9 0 0 1 17.546 12.048 1.724 1.724 0 0 0 1.81 1.113h.1a23.505 23.505 0 1 1 0 47.01h-68.176a19.833 19.833 0 0 1 -19.81-19.811zm101.224 65.88a3.25 3.25 0 1 1 3.25-3.25 3.254 3.254 0 0 1 -3.25 3.25z"/><path d="m112.75 50.17a16.411 16.411 0 0 1 -2.794 9.181 1.75 1.75 0 1 0 2.905 1.951 19.966 19.966 0 0 0 -3.134-25.891 1.75 1.75 0 0 0 -2.359 2.589 16.529 16.529 0 0 1 5.382 12.17z"/></svg>