<svg id="Layer_1" height="512" viewBox="0 0 128 128" width="512" xmlns="http://www.w3.org/2000/svg" data-name="Layer 1"><path d="m121.5 43.915h-9.75v-12a1.75 1.75 0 0 0 -1.75-1.755h-56.2l-11.9-15.87a1.751 1.751 0 0 0 -1.4-.7h-34a1.75 1.75 0 0 0 -1.75 1.75v88.46a10.617 10.617 0 0 0 10.6 10.61h.049 97.261a10.607 10.607 0 0 0 10.59-10.6v-58.145a1.75 1.75 0 0 0 -1.75-1.75zm-99.05 1.75v58.14a7.108 7.108 0 0 1 -7.1 7.1c-.011 0-.021 0-.032 0a7.111 7.111 0 0 1 -7.068-7.105v-86.71h31.375l11.9 15.87a1.751 1.751 0 0 0 1.4.7h55.33v10.255h-84.055a1.75 1.75 0 0 0 -1.75 1.75zm97.3 58.14a7.1 7.1 0 0 1 -7.09 7.1h-89.446a10.558 10.558 0 0 0 2.736-7.1v-56.39h93.8z"/><path d="m67.186 88.5a1.693 1.693 0 0 0 .266.219c.02.014.043.022.064.035a1.838 1.838 0 0 0 .236.126c.035.014.072.021.108.033a1.631 1.631 0 0 0 .219.067 1.728 1.728 0 0 0 .692 0 1.677 1.677 0 0 0 .219-.067c.035-.012.073-.019.108-.033a1.838 1.838 0 0 0 .236-.126c.02-.013.043-.021.063-.035a1.7 1.7 0 0 0 .267-.219l8.366-8.366a1.75 1.75 0 0 0 -2.475-2.475l-5.38 5.381v-21.44a1.75 1.75 0 0 0 -3.5 0v21.44l-5.375-5.381a1.75 1.75 0 0 0 -2.475 2.475z"/><path d="m55.967 98.473h24.916a1.75 1.75 0 0 0 0-3.5h-24.916a1.75 1.75 0 0 0 0 3.5z"/><path d="m31.2 87.875a1.75 1.75 0 0 0 1.75-1.75v-28a1.75 1.75 0 0 0 -3.5 0v28a1.75 1.75 0 0 0 1.75 1.75z"/></svg>