<svg id="Layer_1" height="512" viewBox="0 0 128 128" width="512" xmlns="http://www.w3.org/2000/svg" data-name="Layer 1"><path d="m86.116 31.157a32.419 32.419 0 0 0 -48.106 43.084 43.275 43.275 0 0 1 8.49 25.759 1.749 1.749 0 0 0 1.75 1.75h31.5a1.749 1.749 0 0 0 1.75-1.75 42.288 42.288 0 0 1 8.317-25.526 32.117 32.117 0 0 0 6.6-19.607 32.539 32.539 0 0 0 -10.301-23.71zm.917 41.193a45.61 45.61 0 0 0 -9 25.9h-12.283v-22.664l9.233-7.035a1.75 1.75 0 1 0 -2.121-2.783l-7.112 5.419v-9.693a1.75 1.75 0 0 0 -3.5 0v9.693l-7.112-5.419a1.75 1.75 0 1 0 -2.121 2.783l9.233 7.035v22.659h-12.284a46.758 46.758 0 0 0 -9.152-26.1 28.92 28.92 0 1 1 52.106-17.283 28.643 28.643 0 0 1 -5.887 17.488z"/><path d="m79.755 103.026h-31.51a1.75 1.75 0 0 0 -1.75 1.75v9.872a1.749 1.749 0 0 0 1.75 1.75h6.176a10.154 10.154 0 0 0 9.468 6.852h.125a10.092 10.092 0 0 0 9.564-6.853h6.177a1.749 1.749 0 0 0 1.75-1.75v-9.872a1.75 1.75 0 0 0 -1.75-1.749zm-15.742 16.725h-.081a6.653 6.653 0 0 1 -5.689-3.352h11.515a6.6 6.6 0 0 1 -5.745 3.352zm13.992-6.851h-28.005v-6.372h28.01z"/><path d="m64 18.167a1.749 1.749 0 0 0 1.75-1.75v-9.917a1.75 1.75 0 0 0 -3.5 0v9.917a1.749 1.749 0 0 0 1.75 1.75z"/><path d="m82.47 22.876a1.75 1.75 0 0 0 2.446-.376l5.864-8a1.75 1.75 0 0 0 -2.822-2.07l-5.864 8a1.749 1.749 0 0 0 .376 2.446z"/><path d="m107.479 29.508a1.748 1.748 0 0 0 -2.395-.625l-8.557 5.017a1.75 1.75 0 0 0 1.77 3.019l8.557-5.013a1.75 1.75 0 0 0 .625-2.398z"/><path d="m114.211 52.117a1.751 1.751 0 0 0 -1.963-1.508l-9.832 1.291a1.75 1.75 0 0 0 .226 3.486 1.784 1.784 0 0 0 .229-.015l9.829-1.291a1.751 1.751 0 0 0 1.511-1.963z"/><path d="m43.084 22.5a1.75 1.75 0 0 0 2.822-2.07l-5.864-8a1.75 1.75 0 0 0 -2.822 2.07z"/><path d="m32.1 36.29a1.75 1.75 0 0 0 -.625-2.394l-8.557-5.013a1.75 1.75 0 1 0 -1.77 3.019l8.552 5.013a1.751 1.751 0 0 0 2.4-.625z"/><path d="m25.584 51.9-9.832-1.287a1.75 1.75 0 0 0 -.452 3.467l9.832 1.287a1.784 1.784 0 0 0 .229.015 1.75 1.75 0 0 0 .226-3.486z"/><path d="m73.477 31.274a1.75 1.75 0 1 0 -1.309 3.247 21.844 21.844 0 0 1 13.752 20.341 1.75 1.75 0 1 0 3.5 0 25.33 25.33 0 0 0 -15.943-23.588z"/></svg>